<?xml version="1.0" encoding="utf-8"?>
<!-- Generator: Adobe Illustrator 16.0.3, SVG Export Plug-In . SVG Version: 6.00 Build 0)  -->
<!DOCTYPE svg PUBLIC "-//W3C//DTD SVG 1.1//EN" "http://www.w3.org/Graphics/SVG/1.1/DTD/svg11.dtd">
<svg version="1.1" id="Layer_1" xmlns="http://www.w3.org/2000/svg" xmlns:xlink="http://www.w3.org/1999/xlink" x="0px" y="0px"
	 width="100px" height="39.52px" viewBox="0 0 105.1 44.52" style="enable-background:new 0 0 95.1 39.52;" xml:space="preserve">
<style type="text/css">
<![CDATA[
	.st0{fill-rule:evenodd;clip-rule:evenodd;fill:#093C64;}
	.st1{fill:none;stroke:#F36B7F;stroke-miterlimit:10;}
	.st2{fill:#4B98BC;}
	.st3{fill-rule:evenodd;clip-rule:evenodd;fill:#0E8F81;}
	.st4{fill:#808080;}
	.st5{fill:#B3B3B3;}
	.st6{fill:none;stroke:#B3B3B3;stroke-miterlimit:10;}
	.st7{fill-rule:evenodd;clip-rule:evenodd;fill:#C71521;stroke:#666666;stroke-miterlimit:10;}
	.st8{fill:#ED1C24;}
	.st9{fill:#FFFFFF;stroke:#666666;stroke-miterlimit:10;}
	.st10{fill-rule:evenodd;clip-rule:evenodd;fill:#1166DD;}
	.st11{fill-rule:evenodd;clip-rule:evenodd;fill:#E1E1E1;}
	.st12{fill:none;stroke:#3AC5AA;stroke-miterlimit:10;}
	.st13{fill:none;stroke:#666666;stroke-miterlimit:10;stroke-dasharray:3.9977,3.9977;}
	.st14{fill-rule:evenodd;clip-rule:evenodd;fill:#4B98BC;}
	.st15{fill-rule:evenodd;clip-rule:evenodd;fill:#E62321;}
	.st16{font-family:'VAGRoundedBT-Regular';}
	.st17{fill-rule:evenodd;clip-rule:evenodd;fill:#E6E4E2;}
	.st18{fill-rule:evenodd;clip-rule:evenodd;fill:#4D4E4C;}
	.st19{fill-rule:evenodd;clip-rule:evenodd;fill:#808080;}
	.st20{fill:#F2F4F6;}
	.st21{fill:#F36B7F;}
	.st22{fill-rule:evenodd;clip-rule:evenodd;fill:#B3B3B3;}
	.st23{fill:none;stroke:#4B98BC;stroke-miterlimit:10;}
	.st24{fill:#F7931E;}
	.st25{fill:#F7BC55;}
	.st26{fill-rule:evenodd;clip-rule:evenodd;fill:#564F57;stroke:#666666;stroke-miterlimit:10;}
	.st27{fill:#C1272D;}
	.st28{fill:#C6EEE6;}
	.st29{fill:#FAFAFA;}
	.st30{fill:#999999;}
	.st31{fill:#FCD4DA;}
	.st32{fill-rule:evenodd;clip-rule:evenodd;}
	.st33{fill:#FDEDD2;}
	.st34{fill:#FFFFFF;}
	.st35{fill:none;stroke:#808080;stroke-miterlimit:10;}
	.st36{fill-rule:evenodd;clip-rule:evenodd;fill:#F2F2F2;}
	.st37{fill:#666666;}
	.st38{fill:#FAFAFA;stroke:#666666;stroke-miterlimit:10;stroke-dasharray:4;}
	.st39{fill-rule:evenodd;clip-rule:evenodd;fill:#F7931E;}
	.st40{fill-rule:evenodd;clip-rule:evenodd;fill:#F7C506;}
	.st41{fill:#CCCCCC;}
	.st42{fill-rule:evenodd;clip-rule:evenodd;fill:#C1272D;}
	.st43{fill-rule:evenodd;clip-rule:evenodd;fill:#093C64;stroke:#808080;stroke-miterlimit:10;}
	.st44{fill-rule:evenodd;clip-rule:evenodd;fill:#C71521;}
	.st45{fill:#6C757D;}
	.st46{fill-rule:evenodd;clip-rule:evenodd;fill:#FBB03B;}
	.st47{fill-rule:evenodd;clip-rule:evenodd;fill:#999999;}
	.st48{fill-rule:evenodd;clip-rule:evenodd;fill:#FCEE21;}
	.st49{fill-rule:evenodd;clip-rule:evenodd;fill:#FDFDFD;}
	.st50{fill-rule:evenodd;clip-rule:evenodd;fill:#FDFEFE;}
	.st51{fill-rule:evenodd;clip-rule:evenodd;fill:#60B846;}
	.st52{fill:none;stroke:#666666;stroke-miterlimit:10;}
	.st53{fill-rule:evenodd;clip-rule:evenodd;fill:#FFFFFF;}
	.st54{font-size:12;}
	.st55{fill-rule:evenodd;clip-rule:evenodd;fill:#666666;}
	.st56{fill:#3AC5AA;}
	.st57{fill-rule:evenodd;clip-rule:evenodd;fill:none;stroke:#808080;stroke-miterlimit:10;}
	.st58{fill:#093C64;}
	.st59{fill-rule:evenodd;clip-rule:evenodd;fill:#CCCCCC;}
	.st60{fill:none;stroke:#CCCCCC;stroke-width:0.5;stroke-miterlimit:10;}
	.st61{clip-path:url(#SVGID_24_);}
	.st62{clip-path:url(#SVGID_42_);}
	.st63{fill-rule:evenodd;clip-rule:evenodd;fill:#F2F2F2;stroke:#B3B3B3;stroke-miterlimit:10;}
	.st64{fill-rule:evenodd;clip-rule:evenodd;fill:#6CB517;}
	.st65{fill-rule:evenodd;clip-rule:evenodd;fill:none;stroke:#666666;stroke-miterlimit:10;}
]]>
</style>
<g>
	<g>
		<path class="st55" d="M39.25,9.09c-0.24-0.28-0.49-0.6-0.8-0.75c-2.71-1.25-5.43-2.45-8.14-3.68c-3.15-1.42-6.29-2.86-9.43-4.29
			C20.56,0.24,20.23,0.13,19.91,0c-0.1,0-0.21,0-0.31,0c-2.55,1.13-5.11,2.26-7.66,3.4C8.34,5.02,4.76,6.66,1.16,8.28
			C0.53,8.56,0.21,9.07,0,9.69c0,0.13,0,0.26,0,0.39c0.35,1.23,1.22,1.55,2.42,1.55c11.62-0.02,23.24-0.01,34.86-0.01
			c0.15,0,0.31,0,0.46,0c0.79-0.04,1.4-0.5,1.66-1.24c0.03-0.1,0.08-0.19,0.11-0.28c0-0.13,0-0.26,0-0.39
			C39.43,9.49,39.39,9.25,39.25,9.09z"/>
		<path class="st55" d="M38.65,36.23c-0.38-0.27-0.81-0.29-1.26-0.29c-11.75,0-23.5,0-35.24,0c-0.15,0-0.31,0-0.46,0.01
			c-0.78,0.07-1.27,0.5-1.57,1.2C0.08,37.24,0.04,37.33,0,37.42c0,0.18,0,0.36,0,0.54c0.23,0.61,0.54,1.16,1.2,1.39
			c0.14,0.05,0.28,0.11,0.42,0.16c12.06,0,24.12,0,36.18,0c0.1-0.03,0.19-0.06,0.29-0.09c0.7-0.21,1.17-0.66,1.31-1.38
			C39.57,37.28,39.28,36.68,38.65,36.23z"/>
		<path class="st55" d="M4.11,31.27c-0.78,0-1.38,0.34-1.68,1.08c-0.49,1.2,0.36,2.43,1.69,2.43c5.2,0.01,10.4,0,15.61,0
			c5.21,0,10.43,0,15.65,0c1.06,0,1.81-0.74,1.82-1.75c0-1.01-0.74-1.77-1.8-1.76c-0.37,0-0.46-0.12-0.46-0.47
			c0.01-5.11,0.01-10.22,0-15.34c0-0.38,0.15-0.45,0.48-0.44c0.46,0,0.77-0.25,0.85-0.65c0.09-0.42-0.09-0.82-0.46-0.96
			c-0.2-0.08-0.43-0.08-0.64-0.08c-10.19,0-20.37,0-30.56,0c-0.17,0-0.34,0-0.5,0c-0.55,0.02-0.9,0.36-0.89,0.86
			c0.01,0.48,0.36,0.84,0.88,0.83c0.37-0.01,0.48,0.11,0.48,0.48c-0.01,5.1-0.01,10.2,0,15.3C4.57,31.14,4.48,31.27,4.11,31.27z
			 M26.02,23.13c0-2.53,0-5.06,0-7.59c0-0.52,0-0.52,0.53-0.52c1.48,0,2.97,0.01,4.45,0c0.34,0,0.44,0.11,0.44,0.44
			c-0.01,5.12-0.01,10.25,0,15.37c0,0.31-0.09,0.43-0.42,0.43c-1.52-0.01-3.04-0.02-4.57,0c-0.37,0.01-0.45-0.13-0.45-0.47
			C26.02,28.24,26.02,25.68,26.02,23.13z M17.01,15.48c0-0.35,0.09-0.47,0.45-0.47c1.54,0.02,3.07,0.02,4.61,0
			c0.35,0,0.43,0.12,0.43,0.45c-0.01,5.11-0.01,10.22,0,15.33c0,0.35-0.09,0.47-0.46,0.47c-1.54-0.02-3.07-0.02-4.61,0
			c-0.36,0-0.43-0.13-0.43-0.45c0.01-2.56,0.01-5.11,0.01-7.67h0C17.02,20.59,17.02,18.03,17.01,15.48z M8.06,15.62
			c0-0.6,0-0.6,0.62-0.6c1.46,0,2.92,0.01,4.37-0.01c0.34,0,0.44,0.11,0.44,0.44c-0.01,5.12-0.01,10.24,0,15.37
			c0,0.35-0.12,0.44-0.45,0.44c-1.51-0.01-3.02-0.02-4.53,0c-0.36,0-0.46-0.11-0.46-0.46c0.01-2.54,0.01-5.08,0.01-7.63
			C8.06,20.66,8.06,18.14,8.06,15.62z"/>
	</g>
	<text transform="matrix(1 0 0 1 42.1001 27.1016)"><tspan x="0" y="0" class="st16 st54">Prop</tspan><tspan x="26.02" y="0" class="st27 st16 st54"> Legit</tspan></text>
</g>
</svg>
