<?xml version="1.0" encoding="utf-8"?>
<!-- Generator: Adobe Illustrator 16.0.3, SVG Export Plug-In . SVG Version: 6.00 Build 0)  -->
<!DOCTYPE svg PUBLIC "-//W3C//DTD SVG 1.1//EN" "http://www.w3.org/Graphics/SVG/1.1/DTD/svg11.dtd">
<svg version="1.1" id="Layer_1" xmlns="http://www.w3.org/2000/svg" xmlns:xlink="http://www.w3.org/1999/xlink" x="0px" y="0px"
	 width="1000px" height="420.98px" viewBox="0 0 1000 420.98" style="enable-background:new 0 0 1000 420.98;" xml:space="preserve"
	>
<style type="text/css">
<![CDATA[
	.st0{fill-rule:evenodd;clip-rule:evenodd;}
	.st1{fill-rule:evenodd;clip-rule:evenodd;fill:#C1272C;}
	.st2{fill-rule:evenodd;clip-rule:evenodd;fill:#666666;}
]]>
</style>
<g>
	<g>
		<path class="st2" d="M213.48,364.57c-52.96,0-105.91,0.03-158.87-0.02c-14.42-0.02-22.59-13.18-15.99-25.55
			c2.84-5.33,7.44-7.87,13.4-8.29c6.67-0.47,7.49-1.4,7.49-8.07c0.01-50.12-0.03-100.24,0.06-150.36c0.01-4.64-0.95-7.4-6.32-7.79
			c-5.11-0.37-7.34-3.42-7.2-8.16c0.13-4.41,2.54-6.77,7.63-7.26c2.03-0.2,4.09-0.13,6.14-0.13c101.97,0,203.95-0.01,305.92,0
			c2.83,0,5.69-0.04,8.5,0.23c4.66,0.45,7.27,3.01,7.34,7.11c0.08,4.35-2.02,7.1-6.34,8.15c-7.55,1.84-7.56,1.87-7.56,9.57
			c0,49.33-0.01,98.66,0,147.99c0,7.01,1.03,8.15,7.51,8.73c9.47,0.84,15.79,7.59,15.74,16.79c-0.05,9.24-6.88,16.48-16.24,17.01
			c-3.61,0.21-7.25,0.06-10.87,0.06C313.72,364.58,263.6,364.58,213.48,364.57z M242.24,247.91c0-25.52,0.01-51.04-0.01-76.56
			c0-5.61-1.34-6.9-6.98-6.91c-14.33-0.02-28.66,0-42.99,0c-5.72,0-7.36,1.52-7.37,7.24c-0.07,50.41-0.11,100.82-0.14,151.23
			c0,6.13,1.41,7.58,7.48,7.6c14.18,0.06,28.35,0.05,42.53,0c6.27-0.02,7.46-1.25,7.46-7.46C242.25,298,242.25,272.95,242.24,247.91
			z M276.84,247.08c-0.02,0-0.04,0-0.07,0c0,25.38-0.01,50.75,0.01,76.13c0,5.99,1.25,7.29,7.17,7.3
			c14.03,0.04,28.06,0.05,42.08-0.01c6.34-0.03,7.56-1.24,7.56-7.41c0.02-50.44,0.02-100.88,0-151.32c0-5.93-1.04-7.02-6.82-7.04
			c-14.34-0.06-28.69-0.05-43.03,0c-6.38,0.02-6.89,0.6-6.9,7.15C276.83,196.95,276.84,222.02,276.84,247.08z M150.68,247.87
			c-0.01,0-0.03,0-0.04,0c0-25.2-0.03-50.4,0.02-75.6c0.01-6.26-1.39-7.88-7.66-7.85c-13.86,0.07-27.71,0.19-41.57,0.32
			c-7.12,0.07-7.54,0.49-7.54,7.49c-0.01,29.14,0.03,58.27-0.02,87.41c-0.04,21.1-0.23,42.2-0.29,63.3
			c-0.01,5.87,1.37,7.51,6.57,7.54c14.65,0.09,29.29,0.1,43.94-0.01c5.17-0.04,6.59-1.79,6.59-7.01
			C150.67,298.26,150.68,273.06,150.68,247.87z"/>
		<path class="st2" d="M214.91,130.33c-57.84,0-115.69,0.01-173.53-0.03c-4.08,0-8.21-0.17-12.24-0.77
			c-8.52-1.28-14.69-6.75-15.77-13.52c-1.17-7.28,3.13-14.67,11.23-18.4c13.73-6.33,27.56-12.42,41.37-18.57
			c46.74-20.83,93.49-41.63,140.23-62.47c4.22-1.88,7.62-3.97,13.06-1.42C245.61,27.5,272.33,39.08,298.9,51
			c33.9,15.2,67.78,30.43,101.63,45.74c2.82,1.28,5.63,2.92,7.92,4.99c4.22,3.82,7.41,8.47,5.61,14.58
			c-2.05,6.95-6.24,12.35-13.84,13.21c-6.85,0.78-13.83,0.68-20.75,0.68c-54.85,0.05-109.7,0.03-164.55,0.03
			C214.91,130.26,214.91,130.29,214.91,130.33z"/>
		<path class="st2" d="M213.98,377.82c59.42,0,118.83,0,178.25,0c5.38,0,10.66,0.06,15.23,3.76c9.01,7.3,8.24,22.05-1.93,27.63
			c-3.44,1.89-7.68,3.25-11.55,3.25c-120.41,0.17-240.81,0.12-361.22,0.17c-11.11,0-20.04-9.57-19.53-18.21
			c0.49-8.37,7.06-15.65,15.9-16.42c3.13-0.27,6.3-0.19,9.45-0.19C97.04,377.82,155.51,377.82,213.98,377.82z"/>
	</g>
	<g>
		<path class="st1" d="M884.49,227.13c0.65-1.02,1.08-2.14,1.87-2.88c5.81-5.46,12.85-3.31,14.79,4.47c0.31,1.23,0.67,2.5,0.66,3.74
			c-0.16,18.09,0.25,36.23-0.78,54.27c-0.91,15.8-9.93,24.71-25.67,27.17c-9.55,1.49-19.04,0.84-27.91-3.55
			c-1.95-0.97-3.89-2.3-5.29-3.94c-2.63-3.06-3-6.82-0.79-10.18c2.11-3.21,5.3-4,9.22-2.93c6.23,1.71,12.53,3.84,18.89,4.23
			c9.06,0.54,15.43-6.95,14.86-16.01c-0.03-0.55-0.41-1.08-0.73-1.86c-0.79,0.33-1.44,0.44-1.86,0.81
			c-12.31,10.8-28.12,8.62-37.53-5.2c-9.46-13.89-7.55-34.64,4.3-46.61C858.19,218.9,871.24,218.04,884.49,227.13z M857.05,254.36
			c0.82,2.94,1.3,5.96,2.48,8.67c2.14,4.89,6.03,7.9,11.5,7.75c5.42-0.15,9.2-3.31,11.3-8.18c2.29-5.32,2.37-10.87,0.08-16.2
			c-2.16-5.02-5.92-8.26-11.68-8.28c-5.57-0.02-9.24,3.12-11.38,7.93C858.23,248.59,857.82,251.47,857.05,254.36z"/>
		<path class="st0" d="M660.76,283.91c0,6.93,0.32,13.08-0.08,19.18c-0.47,7.18-4.05,10.74-9.7,10.65
			c-4.14-0.07-7.11-1.96-8.21-5.94c-0.79-2.87-1.25-5.92-1.26-8.9c-0.1-21.13-0.07-42.25-0.03-63.38c0.01-2.21,0.17-4.46,0.59-6.63
			c0.68-3.6,2.31-6.62,6.19-7.71c4.07-1.14,7.51-0.1,10.31,3.07c0.52,0.58,1.05,1.16,1.11,1.21c5.08-1.83,9.64-4.47,14.42-4.99
			c12.16-1.33,21.4,4.35,27.18,14.76c6.97,12.57,6.91,25.75-0.2,38.24C692.36,288.76,678.35,292.45,660.76,283.91z M660.14,253.44
			c0.74,3.51,1,6.23,1.89,8.72c2,5.59,6.22,8.67,11.28,8.7c5.09,0.03,9.81-3.46,11.61-9.02c1.92-5.95,1.93-11.94-1.33-17.5
			c-4.64-7.93-15.17-8.26-19.99-0.41C661.77,246.91,661.13,250.62,660.14,253.44z"/>
		<path class="st0" d="M449.27,243.58c0-10.17-0.09-20.34,0.03-30.51c0.12-9.61,3.31-12.97,12.92-13.14
			c8.57-0.15,17.2-0.35,25.71,0.49c16.31,1.62,26.08,14.05,25.32,31.18c-0.72,16.15-11.45,26.77-27.76,27.38
			c-4.29,0.16-8.58,0.14-12.87,0.06c-2.45-0.05-3.39,0.93-3.35,3.38c0.08,4.61,0.13,9.23-0.15,13.82c-0.14,2.33-0.69,4.75-1.63,6.87
			c-1.58,3.57-4.71,4.95-8.56,4.81c-3.64-0.13-6.71-1.49-7.89-5.04c-0.99-2.96-1.63-6.16-1.69-9.27
			C449.14,263.61,449.27,253.59,449.27,243.58z M469.31,218.48c0,4.17,0,7.8,0,11.43c0,11.89,1.3,12.9,13.35,10.43
			c5.8-1.19,8.75-4.76,8.84-10.69c0.09-6.27-2.76-10.25-8.82-11.07C478.5,218.02,474.19,218.48,469.31,218.48z"/>
		<path class="st0" d="M566,254.07c0.11-20.11,13.86-34.41,33.04-34.36c19.4,0.05,33.14,14.6,32.96,34.91
			c-0.17,20.07-14.01,34.29-33.23,34.14C579.71,288.61,565.89,273.98,566,254.07z M611.66,253.65c-0.08-8.72-4.75-15.19-11.4-15.77
			c-7.85-0.69-13.57,5.48-14.03,15.12c-0.48,10.16,4.84,17.29,12.83,17.2C606.67,270.09,611.74,263.44,611.66,253.65z"/>
		<path class="st1" d="M808.8,259.24c-5.4,0-10.8-0.07-16.19,0.03c-4.01,0.07-4.7,1.41-2.8,5.04c3.01,5.76,10.61,8.72,18.28,6.67
			c4.11-1.1,8.1-2.78,12.01-4.49c3.96-1.73,7.44-1.8,10.08,2.06c2.66,3.88,1.06,7.44-1.65,10.36c-4.72,5.09-10.96,7.48-17.64,8.66
			c-18.79,3.33-34.77-5.16-39.97-21.79c-4.06-12.98-2.21-25.25,7.3-35.51c8.82-9.52,19.91-11.93,32.25-8.78
			c13.41,3.42,23.22,17.45,22.24,31.27c-0.31,4.35-2.69,6.29-6.75,6.37c-5.71,0.11-11.43,0.03-17.15,0.03
			C808.8,259.18,808.8,259.21,808.8,259.24z M788.8,247.26c7.92,0,15.51,0.09,23.08-0.16c0.65-0.02,1.98-2.55,1.71-3.58
			c-1.28-4.95-7.63-8.79-13.1-8.32C794.21,235.74,789.63,240.11,788.8,247.26z"/>
		<path class="st1" d="M717.09,243.23c-0.01-9.84-0.1-19.68,0.05-29.51c0.05-2.97,0.58-5.99,1.3-8.88c0.98-3.9,3.94-5.59,7.8-5.76
			c4.02-0.18,7.37,1.18,8.61,5.25c0.86,2.83,1.35,5.88,1.37,8.83c0.13,16.34,0.07,32.69,0.07,49.03c0,6.66,0,6.64,6.89,6.67
			c4.92,0.02,9.85-0.1,14.75,0.23c3.71,0.25,7.25,1.36,8.83,5.36c2.01,5.11-0.87,10.84-6.79,11.15
			c-11.85,0.61-23.77,0.51-35.64,0.06c-4.98-0.19-7.16-3.86-7.22-10.06C717.03,264.81,717.1,254.02,717.09,243.23z"/>
		<path class="st1" d="M953.61,259.4c0-5.4-0.04-10.79,0.02-16.19c0.03-2.6-0.76-3.93-3.68-4.39c-5.71-0.89-7.9-3.38-7.9-7.8
			c0-5.09,3.54-6.99,7.63-7.58c3.5-0.5,3.94-2.32,3.97-5.17c0.05-3.64,0.09-7.33,0.75-10.89c0.8-4.38,3.63-6.9,8.33-6.95
			c4.68-0.05,7.68,2.37,8.56,6.7c0.74,3.69,0.74,7.56,0.73,11.36c-0.01,3.12,0.89,4.91,4.32,4.64c0.62-0.05,1.27,0.04,1.89,0.14
			c4.46,0.76,8.48,4.34,8.6,7.64c0.13,3.55-3.27,7.64-8.2,7.67c-6.66,0.04-6.78,3.56-6.63,8.51c0.26,8.72,0.11,17.46,0.05,26.19
			c-0.02,2.21-0.11,4.46-0.54,6.62c-0.99,4.93-3.91,7.4-8.45,7.47c-4.82,0.08-8.31-2.36-8.75-7.55c-0.57-6.76-0.14-13.61-0.14-20.43
			C953.98,259.4,953.79,259.4,953.61,259.4z"/>
		<path class="st0" d="M541.15,226.18c4.09-2.16,7-4.21,10.23-5.3c5.57-1.89,11.09,0.86,12.94,5.87c1.61,4.38-0.31,8.23-5.77,11.02
			c-2.54,1.3-5.21,2.37-7.93,3.24c-5.84,1.86-8.35,5.82-8.23,11.83c0.12,6.2,0.07,12.39-0.02,18.59c-0.04,2.69-0.12,5.43-0.59,8.07
			c-0.96,5.4-4.08,8.08-8.99,8.12c-4.96,0.04-8.07-2.54-9.16-7.91c-0.5-2.48-0.75-5.04-0.77-7.57c-0.07-12.08-0.05-24.15,0-36.23
			c0.01-2.06,0.27-4.12,0.54-6.17c0.53-4.04,2.13-7.37,6.4-8.58c4.07-1.15,7.53,0,10.26,3.21
			C540.57,224.96,540.88,225.72,541.15,226.18z"/>
		<path class="st1" d="M916.57,254.42c0-7.6-0.3-15.23,0.09-22.81c0.36-7.07,3.37-10.16,8.75-10.37c4.67-0.19,7.49,2.06,8.68,6.45
			c0.41,1.52,0.82,3.11,0.81,4.67c-0.05,15.05-0.15,30.09-0.35,45.14c-0.02,1.69-0.54,3.46-1.2,5.05c-1.45,3.52-4.38,4.79-8.04,4.69
			c-3.5-0.1-6.28-1.55-7.34-4.96c-0.84-2.69-1.4-5.55-1.49-8.36c-0.21-6.49-0.07-12.99-0.07-19.49
			C916.47,254.42,916.52,254.42,916.57,254.42z"/>
		<path class="st1" d="M925.58,215.19c-6.06-0.09-10.88-5.07-10.69-11.03c0.19-5.68,5.24-10.47,10.95-10.4
			c5.94,0.08,10.83,5.21,10.61,11.16C936.24,210.86,931.55,215.28,925.58,215.19z"/>
	</g>
</g>
</svg>
